<svg xmlns="http://www.w3.org/2000/svg" width="521" height="461" viewBox="0 0 521 461" fill="none"><path d="M346.147 258.168L373.758 249.133L410.522 267.954L438.201 258.897L456.726 221.983L484.371 212.937" stroke="#2C165F" stroke-width="5"></path><path d="M332.407 216.181L360.017 207.146L396.781 225.967L424.461 216.91L442.986 179.996L470.631 170.949" stroke="#2C165F" stroke-width="5"></path><path d="M207.923 303.399L235.533 294.364L272.297 313.185L299.976 304.128L318.502 267.214L346.146 258.167" stroke="#2C165F" stroke-width="5"></path><path d="M194.183 261.412L221.793 252.377L258.557 271.198L286.236 262.141L304.762 225.227L332.406 216.181" stroke="#2C165F" stroke-width="5"></path><path d="M69.6982 348.631L97.3084 339.596L134.072 358.417L161.752 349.36L180.277 312.446L207.922 303.399" stroke="#2C165F" stroke-width="5"></path><path d="M55.958 306.644L83.5682 297.609L120.332 316.43L148.011 307.373L166.537 270.459L194.182 261.413" stroke="#2C165F" stroke-width="5"></path><path d="M373.626 342.142L401.236 333.107L438 351.929L465.679 342.871L484.205 305.957L511.85 296.911" stroke="#2C165F" stroke-width="5"></path><path d="M359.886 300.155L387.496 291.121L424.26 309.942L451.939 300.884L470.465 263.97L498.109 254.924" stroke="#2C165F" stroke-width="5"></path><path d="M235.403 387.373L263.013 378.339L299.777 397.16L327.457 388.102L345.982 351.188L373.627 342.142" stroke="#2C165F" stroke-width="5"></path><path d="M221.663 345.386L249.273 336.351L286.037 355.173L313.716 346.115L332.242 309.201L359.887 300.155" stroke="#2C165F" stroke-width="5"></path><path d="M97.1787 432.605L124.789 423.57L161.553 442.392L189.232 433.334L207.758 396.42L235.402 387.374" stroke="#2C165F" stroke-width="5"></path><path d="M83.4385 390.618L111.049 381.583L147.813 400.405L175.492 391.347L194.017 354.433L221.662 345.387" stroke="#2C165F" stroke-width="5"></path><path d="M291.187 90.2183L318.797 81.1834L355.561 100.005L383.24 90.9473L401.765 54.0333L429.41 44.9871" stroke="#2C165F" stroke-width="5"></path><path d="M277.446 48.2314L305.056 39.1965L341.82 58.0179L369.5 48.9603L388.025 12.0464L415.67 3.00015" stroke="#2C165F" stroke-width="5"></path><path d="M152.964 135.45L180.574 126.415L217.338 145.236L245.017 136.179L263.543 99.2647L291.187 90.2184" stroke="#2C165F" stroke-width="5"></path><path d="M139.224 93.4624L166.834 84.4274L203.598 103.249L231.277 94.1913L249.802 57.2774L277.447 48.2311" stroke="#2C165F" stroke-width="5"></path><path d="M14.7393 180.681L42.3494 171.646L79.1134 190.467L106.793 181.41L125.318 144.496L152.963 135.45" stroke="#2C165F" stroke-width="5"></path><path d="M1.00099 138.694L28.6112 129.659L65.3751 148.481L93.0544 139.423L111.58 102.509L139.225 93.4629" stroke="#2C165F" stroke-width="5"></path><path d="M318.667 174.194L346.277 165.159L383.041 183.98L410.72 174.922L429.246 138.009L456.891 128.962" stroke="#2C165F" stroke-width="5"></path><path d="M304.927 132.206L332.537 123.171L369.301 141.992L396.98 132.935L415.506 96.021L443.15 86.9748" stroke="#2C165F" stroke-width="5"></path><path d="M180.442 219.424L208.053 210.389L244.816 229.21L272.496 220.153L291.021 183.239L318.666 174.193" stroke="#2C165F" stroke-width="5"></path><path d="M166.702 177.437L194.312 168.402L231.076 187.224L258.756 178.166L277.281 141.252L304.926 132.206" stroke="#2C165F" stroke-width="5"></path><path d="M42.2197 264.656L69.8299 255.621L106.594 274.442L134.273 265.385L152.799 228.471L180.443 219.425" stroke="#2C165F" stroke-width="5"></path><path d="M28.4795 222.669L56.0897 213.634L92.8536 232.455L120.533 223.398L139.058 186.484L166.703 177.438" stroke="#2C165F" stroke-width="5"></path></svg>