<svg width="40" height="40" viewBox="0 0 40 40" fill="none" xmlns="http://www.w3.org/2000/svg">
<path d="M30 27.2222C30 28.7567 28.7567 30 27.2222 30H12.7778C11.2439 30 10 28.7567 10 27.2222V12.7778C10 11.2433 11.2439 10 12.7778 10H27.2222C28.7567 10 30 11.2433 30 12.7778V27.2222Z" fill="#0288D1"/>
<path d="M13.3333 17.2224H16.111V26.6668H13.3333V17.2224ZM14.7138 16.1113H14.6983C13.8694 16.1113 13.3333 15.4935 13.3333 14.7218C13.3333 13.9335 13.886 13.3335 14.7299 13.3335C15.5749 13.3335 16.0955 13.9335 16.111 14.7218C16.111 15.4929 15.5749 16.1113 14.7138 16.1113ZM26.6666 26.6668H23.8888V21.6118C23.8888 20.3907 23.2083 19.5574 22.1155 19.5574C21.2816 19.5574 20.8305 20.1196 20.6116 20.6629C20.5316 20.8574 20.5555 21.3952 20.5555 21.6668V26.6668H17.7777V17.2224H20.5555V18.6757C20.956 18.0557 21.5833 17.2224 23.1877 17.2224C25.1755 17.2224 26.666 18.4724 26.666 21.2635L26.6666 26.6668Z" fill="white"/>
</svg>
