<svg xmlns="http://www.w3.org/2000/svg" xmlns:xlink="http://www.w3.org/1999/xlink" id="Layer_1" x="0px" y="0px" viewBox="0 0 570 166" style="enable-background:new 0 0 570 166;" xml:space="preserve"><style type="text/css">	.st0{fill:#FFFFFF;}	.st1{fill:url(#SVGID_1_);}	.st2{fill:url(#SVGID_2_);}	.st3{fill:url(#SVGID_3_);}	.st4{fill:url(#SVGID_4_);}	.st5{fill:url(#SVGID_5_);}	.st6{fill:url(#SVGID_6_);}	.st7{fill:#EDA535;}	.st8{fill:url(#SVGID_7_);}	.st9{fill:url(#SVGID_8_);}	.st10{fill:url(#SVGID_9_);}	.st11{display:none;fill:url(#SVGID_10_);}</style><path class="st0" d="M418.45,92.16L392.8,111.7h-57.77l-21.41-19.72V14l0.58,0.29l0.02,0.01l22.83,11.29v55.9h0.02l33.03,3.24 l31.59,3.1l-0.52-1.21c-0.01,0-0.01-0.01-0.01-0.01L383.1,44.76l32.93-9.23L418.45,92.16z"></path><polygon class="st0" points="304.46,90.89 245.83,156.57 218.53,132.74 231.58,124.47 286.94,89.39 286.97,89.37 286.23,88.19  265.07,54.19 296.42,44.76 "></polygon><polygon class="st0" points="332.19,119.66 404.94,119.66 382.16,155.71 353.88,155.71 375.45,133.14 336.83,136.85 331.81,119.66  "></polygon><polygon class="st0" points="232.42,92.16 206.77,111.7 109.41,111.7 88,91.98 88,14 111.43,25.58 111.43,81.49 183.66,85.88  215.65,87.82 197.07,44.76 230,35.53 "></polygon><linearGradient id="SVGID_1_" gradientUnits="userSpaceOnUse" x1="420.7306" y1="82.7486" x2="342.4185" y2="112.3209">	<stop offset="4.741732e-07" style="stop-color:#000000"></stop>	<stop offset="0.482" style="stop-color:#9B999A;stop-opacity:0"></stop>	<stop offset="1" style="stop-color:#FFFFFF;stop-opacity:0"></stop></linearGradient><path class="st1" d="M392.43,109.72l-2.97,1.99h-28.73l9.37-26.98l31.59,3.1c0,0,5.3,13.16-7.83,21 C393.38,109.12,392.89,109.41,392.43,109.72z"></path><linearGradient id="SVGID_2_" gradientUnits="userSpaceOnUse" x1="319.1049" y1="97.5946" x2="211.3202" y2="138.2966">	<stop offset="4.741732e-07" style="stop-color:#000000"></stop>	<stop offset="0.5307" style="stop-color:#9B999A;stop-opacity:0"></stop>	<stop offset="1" style="stop-color:#FFFFFF;stop-opacity:0"></stop></linearGradient><path class="st2" d="M266.58,130.49l-14.57,12.8l-20.4-18.84l55.36-35.08C293.6,101.61,284.06,115.61,266.58,130.49z"></path><linearGradient id="SVGID_3_" gradientUnits="userSpaceOnUse" x1="300.0047" y1="78.1211" x2="345.4121" y2="24.5506">	<stop offset="4.741732e-07" style="stop-color:#000000"></stop>	<stop offset="0.5307" style="stop-color:#9B999A;stop-opacity:0"></stop>	<stop offset="1" style="stop-color:#FFFFFF;stop-opacity:0"></stop></linearGradient><path class="st3" d="M337.05,25.58v55.9c-16.8-1.85-23.9-18.73-22.83-48.29V14.3L337.05,25.58z"></path><linearGradient id="SVGID_4_" gradientUnits="userSpaceOnUse" x1="74.3737" y1="78.1211" x2="119.7811" y2="24.5506">	<stop offset="4.741732e-07" style="stop-color:#000000"></stop>	<stop offset="0.5307" style="stop-color:#9B999A;stop-opacity:0"></stop>	<stop offset="1" style="stop-color:#FFFFFF;stop-opacity:0"></stop></linearGradient><path class="st4" d="M111.41,25.58v55.9c-16.8-1.85-23.9-18.73-22.83-48.29V14.3L111.41,25.58z"></path><linearGradient id="SVGID_5_" gradientUnits="userSpaceOnUse" x1="384.4274" y1="109.3527" x2="376.0646" y2="156.7419">	<stop offset="4.741732e-07" style="stop-color:#000000"></stop>	<stop offset="0.5307" style="stop-color:#9B999A;stop-opacity:0"></stop>	<stop offset="1" style="stop-color:#FFFFFF;stop-opacity:0"></stop></linearGradient><polygon class="st5" points="404.94,119.66 382.21,155.65 353.93,155.65 375.5,133.08 "></polygon><linearGradient id="SVGID_6_" gradientUnits="userSpaceOnUse" x1="234.8603" y1="83.1853" x2="156.5483" y2="112.7577">	<stop offset="4.741732e-07" style="stop-color:#000000"></stop>	<stop offset="0.482" style="stop-color:#9B999A;stop-opacity:0"></stop>	<stop offset="1" style="stop-color:#FFFFFF;stop-opacity:0"></stop></linearGradient><path class="st6" d="M207.83,108.83c-0.48,0.29-0.97,0.58-1.43,0.89l-2.97,1.99h-28.73l8.97-25.83l31.99,1.95 C215.65,87.82,220.95,100.99,207.83,108.83z"></path><path class="st7" d="M506.61,143.05H481c-26.4,0-48-21.6-48-48V70c0-26.4,21.6-48,48-48h25.61c26.4,0,48,21.6,48,48v25.05 C554.61,121.45,533.01,143.05,506.61,143.05z"></path><polygon class="st0" points="529.63,90.74 522.68,96.47 513.13,104.34 477.27,104.34 462.21,90.62 462.21,43.21 477.27,51.27  477.27,83.32 497.12,85.42 511.1,86.9 518.84,87.72 518.37,86.52 518.36,86.51 506.89,57.77 528.07,51.35 "></polygon><polygon class="st0" points="517.84,110.12 517.81,110.16 503.7,134.32 486.15,134.32 499.54,119.17 475.57,121.66 472.46,110.12  "></polygon><linearGradient id="SVGID_7_" gradientUnits="userSpaceOnUse" x1="505.2831" y1="103.5279" x2="499.7544" y2="134.8574">	<stop offset="4.741732e-07" style="stop-color:#000000"></stop>	<stop offset="0.5307" style="stop-color:#9B999A;stop-opacity:0"></stop>	<stop offset="1" style="stop-color:#FFFFFF;stop-opacity:0"></stop></linearGradient><polygon class="st8" points="517.81,110.16 503.7,134.32 486.15,134.32 499.54,119.17 "></polygon><polygon class="st0" points="477.27,51.27 528.09,51.27 519.88,35.11 462.21,43.22 "></polygon><linearGradient id="SVGID_8_" gradientUnits="userSpaceOnUse" x1="450.0956" y1="36.1338" x2="493.1993" y2="87.3601">	<stop offset="4.741732e-07" style="stop-color:#000000"></stop>	<stop offset="0.5307" style="stop-color:#9B999A;stop-opacity:0"></stop>	<stop offset="1" style="stop-color:#FFFFFF;stop-opacity:0"></stop></linearGradient><polygon class="st9" points="477.27,51.3 477.27,68.29 462.21,67.65 462.21,43.21 "></polygon><linearGradient id="SVGID_9_" gradientUnits="userSpaceOnUse" x1="531.3018" y1="84.9028" x2="480.7892" y2="103.9774">	<stop offset="4.741732e-07" style="stop-color:#000000"></stop>	<stop offset="0.482" style="stop-color:#9B999A;stop-opacity:0"></stop>	<stop offset="1" style="stop-color:#FFFFFF;stop-opacity:0"></stop></linearGradient><path class="st10" d="M512.96,102.77l-1.89,1.36h-18.26l5.95-18.55l20.08,2.13c0,0,3.37,9.05-4.97,14.44 C513.56,102.36,513.26,102.56,512.96,102.77z"></path><linearGradient id="SVGID_10_" gradientUnits="userSpaceOnUse" x1="421.8094" y1="80.7963" x2="445.2195" y2="53.1776">	<stop offset="4.741732e-07" style="stop-color:#000000"></stop>	<stop offset="0.5307" style="stop-color:#9B999A;stop-opacity:0"></stop>	<stop offset="1" style="stop-color:#FFFFFF;stop-opacity:0"></stop></linearGradient><path class="st11" d="M442.27,54.87v28.46c-10.68-1.27-15.2-12.88-14.51-33.2v-3.01L442.27,54.87z"></path></svg>